<svg width="1729" height="490" viewBox="0 0 1729 490" fill="none" xmlns="http://www.w3.org/2000/svg">
<path fill-rule="evenodd" clip-rule="evenodd" d="M320 160C320 248.366 248.366 320 160 320C71.6344 320 0 248.366 0 160C0 71.6343 71.6344 0 160 0C205.126 0 245.889 18.6816 274.976 48.7324C262.043 53.9707 250.231 61.3984 240 70.5557C218.77 51.5542 190.734 40 160 40C93.7258 40 40 93.7256 40 160C40 226.274 93.7258 280 160 280C226.274 280 280 226.274 280 160C280 135.27 272.519 112.286 259.697 93.1899C269.611 84.2358 281.527 77.457 294.694 73.6064C310.71 98.5249 320 128.178 320 160Z" fill="white"/>
<path fill-rule="evenodd" clip-rule="evenodd" d="M480 160C480 248.366 408.366 320 320 320C274.874 320 234.111 301.318 205.024 271.268C217.957 266.029 229.769 258.602 240 249.444C261.23 268.446 289.266 280 320 280C386.274 280 440 226.274 440 160C440 93.7256 386.274 40 320 40C253.726 40 200 93.7256 200 160C200 184.73 207.481 207.714 220.304 226.81C210.39 235.764 198.473 242.543 185.306 246.394C169.29 221.475 160 191.822 160 160C160 71.6343 231.634 0 320 0C408.366 0 480 71.6343 480 160Z" fill="white"/>
<rect x="560" width="8" height="320" fill="white"/>
<path d="M1004.14 281.233C1004.14 289.962 1003.96 298.691 1004.21 307.405C1004.34 311.821 1002.77 313.528 998.321 313.499C990.24 313.455 982.144 313.705 974.078 314.073C969.397 314.294 967.778 312.763 967.793 307.758C967.94 259.728 967.778 211.684 967.748 163.654C967.719 113.416 967.748 63.1783 967.763 12.9405C967.763 10.5265 967.763 8.09781 967.763 5.02143C979.362 5.02143 990.284 4.84479 1001.16 5.3011C1002.28 5.34526 1004.14 9.23121 1004.15 11.3361C1004.31 46.3833 1004.22 81.4305 1004.19 116.478C1004.19 120.957 1004.19 125.224 1004.19 129.563C1005.05 127.9 1008.11 124.176 1009.14 122.631C1026.71 96.2237 1051.87 87.7599 1082.66 89.276C1130.53 91.6312 1162.58 126.296 1170.83 163.757C1178.94 200.556 1178.71 237.148 1159.19 271.43C1133.96 315.721 1081.16 327.217 1044.08 314.455C1030.09 309.642 1019.72 300.207 1011.39 288.255C1009.6 285.664 1007.64 283.191 1005.75 280.659C1005.21 280.851 1004.68 281.042 1004.14 281.233ZM1004.46 203.805C1004.46 212.505 1004.19 221.21 1004.52 229.906C1005.02 243.051 1007.93 255.563 1015.32 266.779C1027.94 285.929 1045.01 297.248 1068.52 296.395C1092.85 295.511 1113.21 285.767 1123.04 262.878C1140.04 223.283 1140.72 182.686 1121.89 143.37C1104.36 106.763 1054.26 98.1372 1027.05 126.369C1015.29 138.586 1006.53 152.702 1005.03 170.042C1004.05 181.273 1004.46 203.805 1004.46 203.805Z" fill="white"/>
<path d="M1568.2 290.213C1571.85 290.213 1574.96 290.213 1578.06 290.213C1625.62 290.168 1673.17 290.227 1720.73 289.948C1727.19 289.904 1729.26 291.582 1728.79 298.279C1727.72 313.396 1728.07 313.366 1712.51 313.425C1656.39 313.631 1600.25 313.882 1544.12 314.102C1541.68 314.117 1539.52 314.102 1536.78 314.029C1530.52 314.102 1529.53 311.35 1529.45 306.257C1529.45 301.376 1529.53 296.454 1529.53 291.552C1529.53 199.629 1529.52 107.705 1529.52 15.7963C1529.52 4.34454 1529.52 4.50646 1541.13 4.52118C1600.94 4.59477 1660.76 4.69781 1720.56 4.4623C1727.48 4.43286 1729.51 6.09617 1728.81 13.1763C1727.26 28.6023 1727.63 28.3227 1712.07 28.3079C1666.23 28.2638 1620.4 28.4993 1574.56 28.5582C1570.73 28.5582 1567.95 28.8526 1567.97 33.9161C1568.08 68.2273 1568 102.553 1568.01 136.864C1568.01 137.571 1568.35 138.263 1568.82 140.059C1574.12 140.059 1579.65 140.059 1585.17 140.059C1622.92 140.044 1660.67 140.118 1698.41 139.926C1703.61 139.897 1705.3 141.486 1705.02 146.697C1704.28 160.239 1707.69 159.312 1692.47 159.385C1653.74 159.547 1615.01 159.65 1576.28 159.43C1570.04 159.4 1567.82 160.725 1567.86 167.481C1568.13 205.472 1567.89 243.463 1567.85 281.454C1567.82 284.089 1568.04 286.724 1568.2 290.213Z" fill="white"/>
<path d="M1433.09 67.7711C1423.91 67.7711 1415.68 67.9919 1407.47 67.5798C1405.92 67.5062 1403.58 65.1363 1403.18 63.4583C1396.18 33.4893 1373.83 22.9207 1346.64 19.4027C1326.26 16.7532 1306.02 17.8424 1287.22 27.7929C1265.2 39.4507 1254.93 61.4123 1261.73 82.9175C1266.38 97.637 1278.02 106.351 1291.03 112.209C1314.39 122.719 1338.39 131.816 1362.16 141.383C1381.5 149.17 1400.03 158.178 1416.66 171.161C1461.28 205.958 1452.93 282.338 1395.51 306.64C1351.74 325.157 1307.55 324.421 1264.42 304.461C1236.32 291.464 1219.35 269.252 1215.39 237.06C1225.4 237.06 1234.98 237.06 1244.43 237.06C1244.89 237.664 1245.4 238.017 1245.43 238.415C1247.96 271.342 1268.06 288.711 1298.03 296.307C1325.01 303.136 1351.59 301.37 1378.1 291.847C1403.83 282.603 1413.26 253.914 1407.16 230.304C1401.27 207.533 1384.37 195.272 1364.82 186.499C1341.65 176.107 1317.47 167.996 1294.15 157.899C1281.44 152.394 1269.01 145.711 1257.5 138.013C1215.77 110.104 1220.98 47.149 1257.72 20.6097C1273.81 8.98128 1291.71 2.40165 1311.45 0.826664C1341.48 -1.5579 1370.67 0.443952 1397.04 17.2095C1413.29 27.5426 1425.35 41.2318 1431.24 59.8373C1431.97 62.0746 1432.33 64.4298 1433.09 67.7711Z" fill="white"/>
<path d="M648.821 4.63858C660.111 4.63858 670.399 4.88881 680.674 4.53554C686.414 4.32947 688.269 6.13997 688.181 12.0719C687.783 40.2598 687.798 68.4478 687.798 96.6357C687.783 136.835 688.46 177.034 687.798 217.218C687.047 263.379 728.262 299.162 771.022 300.207C794.5 300.781 817.08 297.351 837.186 284.516C861.959 268.692 874.883 245.097 875.413 216.276C876.664 148.655 876.532 81.0035 876.959 13.3673C876.973 10.7325 876.959 8.08295 876.959 4.69745C882.552 4.69745 887.424 4.31475 892.164 4.91825C893.695 5.1096 896.05 7.92103 896.05 9.54018C895.962 78.1626 896.624 146.8 895.049 215.393C893.813 269.605 856.057 309.701 802.022 317.267C771.022 321.609 740.42 320.196 711.158 307.64C676.479 292.759 656.254 266.617 652.147 229.023C649.969 209.093 648.556 189.001 648.35 168.967C647.79 116.522 648.07 64.0613 648.07 11.6156C648.055 9.43714 648.512 7.2881 648.821 4.63858Z" fill="white"/>
<path d="M99.9631 382.398H105.752V435.725C105.752 452.201 93.3391 464.336 75.6935 464.336C58.1037 464.336 45.6349 452.146 45.6349 435.725V382.398H51.424V435.391C51.424 448.917 61.3322 458.825 75.6935 458.77C90.0549 458.825 99.9074 448.917 99.9631 435.391V382.398ZM128.517 463V382.398H134.194V415.463H134.64C137.367 408.338 143.267 401.658 153.788 401.658C168.428 401.658 178.225 414.572 178.169 432.941C178.225 451.366 168.483 464.28 153.899 464.225C143.323 464.28 137.423 457.545 134.64 450.42H133.972V463H128.517ZM134.083 432.83C134.083 447.971 141.208 459.104 153.231 459.104C165.533 459.104 172.547 447.692 172.602 432.83C172.547 418.079 165.533 406.835 153.231 406.779C141.208 406.835 134.083 417.745 134.083 432.83ZM194.699 463V402.549H200.377V463H194.699ZM193.14 387.742C193.196 385.46 195.144 383.567 197.593 383.512C199.931 383.567 201.88 385.46 201.935 387.742C201.88 390.08 199.931 391.973 197.593 391.973C195.144 391.973 193.196 390.08 193.14 387.742ZM260.881 485.711V450.42H260.436C257.708 457.601 251.641 464.28 241.176 464.225C226.592 464.28 216.851 451.311 216.795 432.941C216.851 414.517 226.536 401.658 241.287 401.658C251.808 401.658 257.653 408.338 260.436 415.463H260.993V402.549H266.448V485.711H260.881ZM222.473 432.83C222.473 447.692 229.598 459.104 241.733 459.104C253.756 459.104 260.993 447.971 260.993 432.83C260.993 417.745 253.923 406.835 241.733 406.779C229.487 406.835 222.473 418.079 222.473 432.83ZM324.726 440.957V402.549H330.292V463H324.726V453.092H324.28C321.441 459.326 314.929 463.779 306.245 463.779C294.444 463.779 286.095 455.708 286.095 442.182V402.549H291.661V441.848C291.661 451.756 298.23 458.324 307.581 458.324C316.654 458.324 324.726 451.867 324.726 440.957ZM350.051 463V402.549H355.728V463H350.051ZM348.492 387.742C348.548 385.46 350.496 383.567 352.945 383.512C355.283 383.567 357.231 385.46 357.287 387.742C357.231 390.08 355.283 391.973 352.945 391.973C350.496 391.973 348.548 390.08 348.492 387.742ZM397.641 402.549V407.447H384.95V448.193C385.005 455.597 389.681 458.547 394.858 458.547C396.027 458.547 398.031 458.491 399.2 458.436V463.668C398.086 463.835 396.695 463.946 394.413 464.002C386.731 463.946 379.383 458.77 379.383 449.307V407.447H370.477V402.549H379.383V388.076H384.95V402.549H397.641ZM437.105 464.225C421.908 464.28 410.998 451.199 410.943 432.941C410.998 414.684 421.908 401.658 437.105 401.658C452.301 401.658 463.211 414.739 463.267 432.941C463.211 451.199 452.301 464.28 437.105 464.225ZM416.62 432.941C416.565 447.525 424.525 459.104 437.105 459.104C449.685 459.104 457.589 447.525 457.589 432.941C457.589 418.524 449.629 406.779 437.105 406.779C424.58 406.779 416.565 418.524 416.62 432.941ZM518.205 440.957V402.549H523.771V463H518.205V453.092H517.76C514.921 459.326 508.408 463.779 499.725 463.779C487.924 463.779 479.574 455.708 479.574 442.182V402.549H485.141V441.848C485.141 451.756 491.709 458.324 501.06 458.324C510.134 458.324 518.205 451.867 518.205 440.957ZM576.928 416.799C575.592 410.564 570.527 406.724 562.678 406.668C553.995 406.612 547.983 411.511 547.983 418.135C547.983 423.423 551.713 427.152 559.339 429.045L568.69 431.383C578.376 433.721 583.33 439.176 583.274 446.969C583.33 457.1 574.98 464.28 561.565 464.225C549.486 464.28 541.749 458.38 540.19 448.082H546.09C547.371 455.374 552.77 459.215 561.565 459.215C571.251 459.215 577.596 454.539 577.596 447.303C577.596 441.959 574.09 438.118 566.686 436.393L557.335 434.055C547.538 431.717 542.361 426.206 542.305 418.357C542.361 408.561 550.655 401.603 562.678 401.658C573.923 401.714 581.159 407.893 582.606 416.799H576.928ZM673.557 402.66C672.777 392.919 664.984 386.518 653.74 386.518C642.107 386.518 633.924 393.253 633.924 402.549C633.924 410.898 641.105 415.407 650.289 418.135L658.973 420.695C670.607 424.035 680.348 429.713 680.348 441.848C680.348 454.762 669.883 464.336 653.184 464.336C637.264 464.336 627.077 455.708 626.242 443.184H632.143C632.922 453.036 641.439 458.937 653.184 458.992C665.819 458.937 674.67 452.034 674.67 441.848C674.67 433.498 668.38 429.212 657.303 425.928L647.84 423.145C635.204 419.304 628.246 412.791 628.246 402.771C628.246 390.136 639.268 381.174 653.852 381.174C668.491 381.174 678.622 390.247 679.234 402.66H673.557ZM720.591 464.225C705.394 464.28 694.484 451.199 694.429 432.941C694.484 414.684 705.394 401.658 720.591 401.658C735.787 401.658 746.697 414.739 746.753 432.941C746.697 451.199 735.787 464.28 720.591 464.225ZM700.106 432.941C700.051 447.525 708.011 459.104 720.591 459.104C733.171 459.104 741.075 447.525 741.075 432.941C741.075 418.524 733.115 406.779 720.591 406.779C708.066 406.779 700.051 418.524 700.106 432.941ZM786.55 402.549V407.447H773.414L773.302 463H767.736V407.447H758.83V402.549H767.736V393.42C767.736 384.291 773.08 378.669 782.209 378.725C783.99 378.669 786.161 378.892 787.552 379.17V384.402C786.105 384.068 784.435 383.957 783.099 383.957C776.586 383.957 773.358 387.575 773.414 394.311V402.549H786.55ZM823.565 402.549V407.447H810.873V448.193C810.929 455.597 815.605 458.547 820.781 458.547C821.95 458.547 823.954 458.491 825.123 458.436V463.668C824.01 463.835 822.618 463.946 820.336 464.002C812.655 463.946 805.307 458.77 805.307 449.307V407.447H796.401V402.549H805.307V388.076H810.873V402.549H823.565ZM854.122 463L835.976 402.549H841.876L857.017 454.762H857.462L872.603 402.549H878.503L893.532 454.65H893.978L909.118 402.549H915.019L896.872 463H890.86L875.831 411.455H875.163L860.134 463H854.122ZM926.65 446.301C926.65 435.613 934.387 429.49 948.47 428.377C952.812 428.043 962.832 427.319 965.726 427.152V420.695C965.671 412.123 959.826 406.724 950.029 406.668C941.791 406.724 935.612 410.509 934.109 416.799H928.32C929.656 407.559 938.618 401.658 950.252 401.658C960.494 401.658 971.293 407.058 971.293 421.141V463H965.726V452.535H965.281C962.331 458.881 955.762 464.336 946.021 464.336C935.445 464.336 926.65 457.823 926.65 446.301ZM932.216 446.523C932.272 454.428 938.451 459.215 946.689 459.215C957.933 459.215 965.671 450.42 965.726 438.842V431.995C962.665 432.162 952.812 432.941 949.584 433.164C937.059 434.11 932.272 439.231 932.216 446.523ZM991.051 463V402.549H996.506V412.012H996.952C999.512 405.777 1006.19 401.658 1013.98 401.658C1014.99 401.658 1016.04 401.714 1016.88 401.77V407.447C1016.21 407.336 1015.1 407.113 1013.65 407.113C1003.8 407.113 996.618 414.016 996.618 423.479V463H991.051ZM1051.56 464.225C1035.02 464.28 1024.45 451.199 1024.39 433.053C1024.45 414.906 1035.25 401.658 1050.44 401.658C1063.97 401.658 1075.83 412.401 1075.83 431.049V434.166H1030.07C1030.24 448.75 1038.36 459.104 1051.56 459.104C1061.02 459.104 1066.25 453.648 1068.37 449.752H1074.38C1071.82 457.267 1063.63 464.28 1051.56 464.225ZM1030.13 429.156H1070.15C1070.09 416.576 1061.74 406.779 1050.44 406.779C1039.2 406.779 1030.79 416.688 1030.13 429.156ZM1122.47 463V382.398H1168.11V387.631H1128.26V420.027H1165.55V425.26H1128.26V457.656H1168.89V463H1122.47ZM1192.1 424.258V463H1186.53V402.549H1191.99V412.123H1192.55C1195.33 405.833 1201.73 401.77 1210.36 401.77C1222.6 401.77 1230.95 409.785 1230.95 423.367V463H1225.39V423.701C1225.33 413.515 1218.93 406.891 1209.13 406.891C1199.28 406.891 1192.1 413.737 1192.1 424.258ZM1272.87 486.936C1260.73 486.936 1251.1 481.87 1249.38 471.906H1255.28C1256.95 478.586 1263.96 481.87 1272.87 481.926C1284.45 481.87 1291.4 476.192 1291.35 464.225V449.641H1290.9C1288.17 456.766 1281.83 462.61 1271.64 462.555C1257.28 462.61 1247.32 450.81 1247.26 432.496C1247.32 414.238 1257 401.658 1271.75 401.658C1282.33 401.658 1288.12 408.338 1290.9 415.463H1291.46V402.549H1296.91V464.447C1296.97 479.644 1287.12 486.936 1272.87 486.936ZM1252.94 432.607C1252.94 447.358 1260.06 457.434 1272.2 457.434C1284.17 457.434 1291.46 448.026 1291.46 432.607C1291.46 417.745 1284.39 406.835 1272.2 406.779C1259.95 406.835 1252.94 418.079 1252.94 432.607ZM1316.9 463V402.549H1322.57V463H1316.9ZM1315.34 387.742C1315.39 385.46 1317.34 383.567 1319.79 383.512C1322.13 383.567 1324.08 385.46 1324.13 387.742C1324.08 390.08 1322.13 391.973 1319.79 391.973C1317.34 391.973 1315.39 390.08 1315.34 387.742ZM1347.9 424.258V463H1342.33V402.549H1347.79V412.123H1348.34C1351.13 405.833 1357.53 401.77 1366.16 401.77C1378.4 401.77 1386.75 409.785 1386.75 423.367V463H1381.19V423.701C1381.13 413.515 1374.73 406.891 1364.93 406.891C1355.08 406.891 1347.9 413.737 1347.9 424.258ZM1430.22 464.225C1413.69 464.28 1403.11 451.199 1403.06 433.053C1403.11 414.906 1413.91 401.658 1429.11 401.658C1442.64 401.658 1454.49 412.401 1454.49 431.049V434.166H1408.74C1408.9 448.75 1417.03 459.104 1430.22 459.104C1439.69 459.104 1444.92 453.648 1447.03 449.752H1453.05C1450.48 457.267 1442.3 464.28 1430.22 464.225ZM1408.79 429.156H1448.81C1448.76 416.576 1440.41 406.779 1429.11 406.779C1417.87 406.779 1409.46 416.688 1408.79 429.156ZM1494.62 464.225C1478.09 464.28 1467.52 451.199 1467.46 433.053C1467.52 414.906 1478.31 401.658 1493.51 401.658C1507.04 401.658 1518.89 412.401 1518.89 431.049V434.166H1473.14C1473.3 448.75 1481.43 459.104 1494.62 459.104C1504.09 459.104 1509.32 453.648 1511.43 449.752H1517.45C1514.89 457.267 1506.7 464.28 1494.62 464.225ZM1473.19 429.156H1513.22C1513.16 416.576 1504.81 406.779 1493.51 406.779C1482.27 406.779 1473.86 416.688 1473.19 429.156ZM1535.2 463V402.549H1540.66V412.012H1541.1C1543.66 405.777 1550.34 401.658 1558.13 401.658C1559.14 401.658 1560.19 401.714 1561.03 401.77V407.447C1560.36 407.336 1559.25 407.113 1557.8 407.113C1547.95 407.113 1540.77 414.016 1540.77 423.479V463H1535.2ZM1573.89 463V402.549H1579.56V463H1573.89ZM1572.33 387.742C1572.38 385.46 1574.33 383.567 1576.78 383.512C1579.12 383.567 1581.07 385.46 1581.12 387.742C1581.07 390.08 1579.12 391.973 1576.78 391.973C1574.33 391.973 1572.38 390.08 1572.33 387.742ZM1604.89 424.258V463H1599.32V402.549H1604.78V412.123H1605.33C1608.12 405.833 1614.52 401.77 1623.15 401.77C1635.39 401.77 1643.74 409.785 1643.74 423.367V463H1638.17V423.701C1638.12 413.515 1631.72 406.891 1621.92 406.891C1612.07 406.891 1604.89 413.737 1604.89 424.258ZM1685.65 486.936C1673.52 486.936 1663.89 481.87 1662.16 471.906H1668.06C1669.73 478.586 1676.75 481.87 1685.65 481.926C1697.23 481.87 1704.19 476.192 1704.13 464.225V449.641H1703.69C1700.96 456.766 1694.62 462.61 1684.43 462.555C1670.07 462.61 1660.1 450.81 1660.05 432.496C1660.1 414.238 1669.79 401.658 1684.54 401.658C1695.12 401.658 1700.91 408.338 1703.69 415.463H1704.25V402.549H1709.7V464.447C1709.76 479.644 1699.9 486.936 1685.65 486.936ZM1665.73 432.607C1665.73 447.358 1672.85 457.434 1684.99 457.434C1696.95 457.434 1704.25 448.026 1704.25 432.607C1704.25 417.745 1697.18 406.835 1684.99 406.779C1672.74 406.835 1665.73 418.079 1665.73 432.607Z" fill="white"/>
</svg>
